#!OML:ASF I:\Actors\actors\Patient Classification 1\Patient 1\Session 1\Subject1.ASF
:FULLY-SPECIFIED
:DEGREES
282
root 0.483977 17.5357 7.81132 10.0456 1.98361 -9.09558
lowerback 0.948945 1.39598 7.02874
upperback -8.87432 2.57627 2.89093
thorax -9.82671 0.84146 -1.07114
lowerneck -9.14814 -6.13221 -3.11538
upperneck 24.1804 -8.18672 0.500592
head 9.248 -4.06702 -0.182025
rclavicle -3.47873e-016 -1.85864e-014
rhumerus -4.83547 29.7558 -80.6762
rradius 76.4804
rwrist 43.8461
rhand -18.7714 -61.2513
rfingers 7.12502
rthumb 7.52577 91.0974
lclavicle -3.47873e-016 -1.85864e-014
lhumerus -8.97368 -23.7889 97.8464
lradius 52.3483
lwrist -34.1388
lhand -43.1871 -17.0701
lfingers 7.12502
lthumb -16.0385 12.2861
rfemur -7.2567 22.6946 23.4175
rtibia 4.40436
rfoot -15.2774 -30.3211
rtoes 9.32919
lfemur -2.89083 -34.9196 -8.00703
ltibia -2.7431
lfoot -11.5421 41.9372
ltoes 3.67618
283
root 0.487763 17.5357 7.81233 10.0008 1.73215 -9.11917
lowerback 1.0252 1.50543 6.89686
upperback -8.85774 2.71583 2.81789
thorax -9.84292 0.916379 -1.09086
lowerneck -9.18903 -6.12883 -3.25408
upperneck 24.1714 -8.29407 1.06539
head 9.28775 -4.06896 0.017613
rclavicle -2.18321e-014 2.77553e-014
rhumerus -5.182 30.1205 -82.4521
rradius 76.6156
rwrist 45.5236
rhand -18.9306 -60.7868
rfingers 7.12502
rthumb 7.37218 90.6383
lclavicle -2.18321e-014 2.77553e-014
lhumerus -8.92837 -23.5981 97.9035
lradius 52.3089
lwrist -34.31
lhand -42.9949 -17.039
lfingers 7.12502
lthumb -15.8535 12.332
rfemur -7.32161 22.5338 23.4147
rtibia 4.54616
rfoot -15.1033 -29.967
rtoes 9.0787
lfemur -2.70812 -34.9326 -8.13387
ltibia -2.734
lfoot -11.7872 42.1938
ltoes 4.16238
284
root 0.490996 17.5354 7.81267 9.91987 1.59978 -9.17219
lowerback 0.936718 1.58396 6.70475
upperback -8.69335 2.78986 2.82824
thorax -9.60455 0.97831 -0.97787
lowerneck -9.28149 -6.14703 -3.53468
upperneck 23.9623 -8.42618 1.75539
head 9.28144 -4.08252 0.281319
rclavicle -6.62046e-015 1.2424e-015
rhumerus -4.76535 31.2896 -83.1888
rradius 76.1925
rwrist 46.348
rhand -19.6891 -61.0295
rfingers 7.12502
rthumb 6.63999 90.9054
lclavicle -6.62046e-015 1.2424e-015
lhumerus -8.63037 -23.3948 97.948
lradius 52.3103
lwrist -34.2824
lhand -42.9208 -17.1456
lfingers 7.12502
lthumb -15.7821 12.231
rfemur -7.31489 22.3795 23.472
rtibia 4.64029
rfoot -14.9047 -29.7336
rtoes 8.57889
lfemur -2.5506 -34.9601 -8.20449
ltibia -2.68625
lfoot -12.2258 42.336
ltoes 4.73021
285
root 0.493032 17.5349 7.81254 9.82552 1.53318 -9.22845
lowerback 0.527798 1.60107 6.29507
upperback -8.2766 2.73457 3.01129
thorax -8.91863 1.0169 -0.540918
lowerneck -9.72341 -6.15144 -3.9268
upperneck 23.7244 -8.50445 2.45526
head 9.33586 -4.07427 0.560446
rclavicle 3.81418e-015 -2.91965e-014
rhumerus -3.92967 32.196 -83.515
rradius 75.5003
rwrist 47.1211
rhand -19.8983 -60.6336
rfingers 7.12502
rthumb 6.43797 90.5157
lclavicle 3.81418e-015 -2.91965e-014
lhumerus -7.8953 -23.1033 97.8903
lradius 52.3647
lwrist -34.0144
lhand -42.969 -17.0188
lfingers 7.12502
lthumb -15.8285 12.3541
rfemur -7.28987 22.198 23.5497
rtibia 4.74916
rfoot -14.7315 -29.5093
rtoes 7.99615
lfemur -2.38728 -35.0055 -8.263
ltibia -2.67001
lfoot -12.4884 42.4894
ltoes 4.66604
286
root 0.495347 17.5337 7.81257 9.76626 1.52355 -9.25271
lowerback 1.09806 1.75065 6.42975
upperback -8.61021 2.99856 2.71086
thorax -9.595 1.09822 -0.97425
lowerneck -9.53224 -6.42489 -4.36398
upperneck 23.8814 -9.10118 3.57097
head 9.45667 -4.27433 0.944245
rclavicle 2.37423e-014 3.598e-014
rhumerus -4.79827 31.9398 -85.2216
rradius 74.5248
rwrist 47.8436
rhand -18.7371 -59.9477
rfingers 7.12502
rthumb 7.55888 270.207
lclavicle 2.37423e-014 3.598e-014
lhumerus -8.59614 -23.6403 98.0492
lradius 52.6193
lwrist -33.502
lhand -42.926 -16.062
lfingers 7.12502
lthumb -15.7871 13.3142
rfemur -7.29785 21.9721 23.5807
rtibia 4.86424
rfoot -14.6926 -29.2631
rtoes 7.81056
lfemur -2.2693 -34.94 -8.31678
ltibia -2.72239
lfoot -12.5418 42.5775
ltoes 4.21334
287
root 0.497975 17.5334 7.81311 9.72299 1.50288 -9.28191
lowerback 1.34478 1.82358 6.34797
upperback -8.7206 3.11341 2.59372
thorax -9.8555 1.14587 -1.07313
lowerneck -9.34791 -6.62654 -4.78566
upperneck 23.6821 -9.54462 4.5372
head 9.44654 -4.42268 1.29646
rclavicle 1.11692e-014 2.18663e-015
rhumerus -7.82966 29.1285 -88.432
rradius 74.8302
rwrist 50.2325
rhand -17.5874 -57.6544
rfingers 7.12502
rthumb 8.66851 272.544
lclavicle 1.11692e-014 2.18663e-015
lhumerus -8.85322 -23.7395 98.1062
lradius 52.9911
lwrist -32.7204
lhand -42.1382 -14.8866
lfingers 7.12502
lthumb -15.0283 14.548
rfemur -7.31695 21.745 23.6042
rtibia 4.97253
rfoot -14.7104 -28.9927
rtoes 7.96412
lfemur -2.0953 -35.1305 -8.40942
ltibia -2.82535
lfoot -12.5865 42.964
ltoes 3.84536
288
root 0.501043 17.5346 7.81329 9.70532 1.46675 -9.34711
lowerback 1.41503 1.90003 6.20304
upperback -8.69913 3.21291 2.59874
thorax -9.87262 1.20638 -0.999435
lowerneck -9.34872 -6.72753 -4.62785
upperneck 23.5014 -9.70903 4.55174
head 9.3843 -4.48672 1.2576
rclavicle 4.50993e-015 1.05356e-014
rhumerus -5.89375 31.6258 -87.7684
rradius 72.3249
rwrist 47.3209
rhand -17.2858 -59.5684
rfingers 7.12502
rthumb 8.95956 270.642
lclavicle 4.50993e-015 1.05356e-014
lhumerus -8.89451 -23.6248 98.2388
lradius 53.6646
lwrist -31.1756
lhand -40.515 -13.4056
lfingers 7.12502
lthumb -13.4642 16.1393
rfemur -7.38682 21.5246 23.6557
rtibia 5.11692
rfoot -14.6566 -28.7497
rtoes 7.91115
lfemur -1.90783 -35.6442 -8.48779
ltibia -2.91038
lfoot -12.7094 43.6592
ltoes 3.66393
289
root 0.507076 17.5329 7.81047 9.85529 1.43596 -9.3787
lowerback 1.14199 1.96175 6.00245
upperback -8.56321 3.25489 2.66507
thorax -9.56519 1.25735 -0.811016
lowerneck -9.59437 -6.84874 -4.3994
upperneck 23.3642 -9.85957 4.36567
head 9.36756 -4.55328 1.13176
rclavicle -1.17407e-014 1.09332e-015
rhumerus -5.60277 31.65 -88.2576
rradius 70.8493
rwrist 46.5359
rhand -16.6769 -59.4594
rfingers 7.12502
rthumb 9.5471 270.777
lclavicle -1.17407e-014 1.09332e-015
lhumerus -8.69804 -23.5459 98.3699
lradius 54.7831
lwrist -28.555
lhand -38.5385 -10.8783
lfingers 7.12502
lthumb -11.5586 18.7829
rfemur -7.71214 21.2267 23.5714
rtibia 5.31741
rfoot -14.5618 -28.465
rtoes 7.62762
lfemur -2.01457 -36.1778 -8.45392
ltibia -2.91488
lfoot -12.8458 44.3968
ltoes 3.50622
290
root 0.517371 17.5265 7.80319 10.2354 1.37507 -9.3855
lowerback 0.363874 1.95805 5.65622
upperback -8.23582 3.15653 2.88581
thorax -8.76912 1.27177 -0.34761
lowerneck -9.97152 -6.95393 -4.45999
upperneck 22.938 -9.96892 4.42144
head 9.3012 -4.60201 1.13724
rclavicle 1.07157e-014 3.56322e-014
rhumerus -4.85382 31.8566 -88.2941
rradius 69.4562
rwrist 45.7516
rhand -15.9024 -59.0884
rfingers 7.12502
rthumb 10.2943 271.184
lclavicle 1.07157e-014 3.56322e-014
lhumerus -7.99432 -23.3028 98.4337
lradius 56.4382
lwrist -25.0583
lhand -35.8883 -8.08445
lfingers 7.12502
lthumb -9.00199 21.7035
rfemur -8.39393 20.8416 23.3121
rtibia 5.59146
rfoot -14.4773 -28.0341
rtoes 7.39759
lfemur -2.47068 -36.8346 -8.25664
ltibia -2.87712
lfoot -13.2208 45.2691
ltoes 4.00637
291
root 0.512074 17.5418 7.80484 9.94116 1.17329 -9.44389
lowerback 1.11714 2.08605 5.55782
upperback -8.35018 3.39122 2.81647
thorax -9.3328 1.37484 -0.414436
lowerneck -9.70593 -7.19302 -4.63762
upperneck 22.7824 -10.3616 4.78573
head 9.24883 -4.77124 1.25256
rclavicle -3.47128e-014 -1.98785e-016
rhumerus -5.54244 31.2997 -89.1676
rradius 68.3704
rwrist 45.2469
rhand -14.9671 -58.6445
rfingers 7.12502
rthumb 11.1964 271.674
lclavicle -3.47128e-014 -1.98785e-016
lhumerus -8.43957 -23.8028 98.8674
lradius 58.6064
lwrist -21.2941
lhand -32.9137 -6.55971
lfingers 7.12502
lthumb -6.13093 23.3316
rfemur -8.06767 20.9633 23.5103
rtibia 5.64937
rfoot -14.5286 -27.9333
rtoes 7.53395
lfemur -1.66355 -37.5818 -8.64224
ltibia -3.18194
lfoot -13.9835 46.162
ltoes 5.29585
292
root 0.510153 17.5497 7.80184 9.8781 1.13447 -9.54486
lowerback 0.978798 2.08514 5.28486
upperback -8.04544 3.35826 3.02238
thorax -8.93809 1.40149 -0.0355645
lowerneck -9.8322 -7.34304 -5.16361
upperneck 22.3416 -10.5697 5.33242
head 9.19347 -4.86 1.49436
rclavicle -1.08524e-014 6.4605e-016
rhumerus -5.19642 31.1528 -89.2839
rradius 67.3478
rwrist 45.0369
rhand -14.0652 -58.338
rfingers 7.12502
rthumb 12.0662 272.03
lclavicle -1.08524e-014 6.4605e-016
lhumerus -7.71731 -24.1212 99.1075
lradius 61.24
lwrist -20.2241
lhand -29.1336 -3.1343
lfingers 7.12502
lthumb -2.48072 26.831
rfemur -8.0428 20.9326 23.6525
rtibia 5.7262
rfoot -14.5054 -27.8466
rtoes 7.65379
lfemur -1.45642 -37.8644 -8.63084
ltibia -3.30378
lfoot -14.4184 46.5272
ltoes 5.87219
293
root 0.50287 17.5538 7.79805 9.91832 0.8436 -9.66743
lowerback 1.68392 2.34113 5.45847
upperback -8.44418 3.78421 2.8125
thorax -9.76439 1.56228 -0.423622
lowerneck -9.35274 -7.64007 -5.61283
upperneck 22.342 -11.0956 6.02954
head 9.20674 -5.08392 1.7547
rclavicle 1.90461e-014 3.65764e-014
rhumerus -5.57238 31.6621 -89.274
rradius 66.3431
rwrist 43.8601
rhand -13.8685 -59.1193
rfingers 7.12502
rthumb 12.2559 271.26
lclavicle 1.90461e-014 3.65764e-014
lhumerus -7.94602 -25.6215 99.6829
lradius 63.7872
lwrist -20.2558
lhand -26.0596 -0.755582
lfingers 7.12502
lthumb 0.488197 29.2236
rfemur -8.19032 21.0093 23.7851
rtibia 5.87611
rfoot -14.4018 -27.6004
rtoes 7.56649
lfemur -1.23374 -37.934 -8.57952
ltibia -3.51549
lfoot -14.7377 46.9416
ltoes 6.17278
294
root 0.51991 17.5374 7.78836 10.5059 1.64135 -9.53601
lowerback 1.20541 2.21804 5.75235
upperback -8.6381 3.59938 2.67636
thorax -9.6806 1.44369 -0.694657
lowerneck -8.98536 -7.88443 -5.99493
upperneck 21.9483 -11.4795 6.54378
head 9.0845 -5.26015 1.95862
rclavicle -6.33626e-015 -7.85199e-015
rhumerus -6.03551 31.0708 -89.5814
rradius 65.8237
rwrist 44.1218
rhand -13.6246 -58.9928
rfingers 7.12502
rthumb 12.491 271.401
lclavicle -6.33626e-015 -7.85199e-015
lhumerus -6.95635 -27.5771 99.9994
lradius 66.041
lwrist -21.1209
lhand -23.57 1.55105
lfingers 7.12502
lthumb 2.89262 31.5112
rfemur -8.88004 20.653 23.3317
rtibia 5.81424
rfoot -14.6805 -27.9009
rtoes 8.39664
lfemur -2.78945 -37.4934 -7.82701
ltibia -3.14273
lfoot -13.6745 46.0087
ltoes 4.79068
